<svg xmlns="http://www.w3.org/2000/svg" width="181" height="30" fill="none"><path fill="#fff" d="M7.544 23.448c-2.304 0-4.139-.63-5.504-1.888C.696 20.301.024 18.541.024 16.28v-2.112h4.224v2.112c0 1.003.277 1.792.832 2.368.555.555 1.333.832 2.336.832.939 0 1.664-.277 2.176-.832.533-.555.8-1.344.8-2.368V4.44h-3.84V.6h10.624v3.84h-2.56v11.84c0 2.325-.63 4.107-1.888 5.344-1.259 1.216-2.987 1.824-5.184 1.824Zm16.617 0c-1.13 0-2.144-.192-3.04-.576-.896-.405-1.61-.981-2.144-1.728-.512-.768-.768-1.696-.768-2.784 0-1.088.256-1.995.768-2.72.533-.747 1.259-1.301 2.176-1.664.939-.384 2.005-.576 3.2-.576h4.352v-.896c0-.747-.235-1.355-.704-1.824-.47-.49-1.216-.736-2.24-.736-1.003 0-1.75.235-2.24.704-.49.448-.81 1.035-.96 1.76L18.85 11.16a6.41 6.41 0 0 1 1.216-2.208c.576-.683 1.333-1.227 2.272-1.632.96-.427 2.123-.64 3.488-.64 2.09 0 3.744.523 4.96 1.568 1.216 1.045 1.824 2.56 1.824 4.544v5.92c0 .64.299.96.896.96h1.28V23h-2.688c-.79 0-1.44-.192-1.952-.576a1.825 1.825 0 0 1-.768-1.536v-.032h-.608c-.085.256-.277.597-.576 1.024-.299.405-.768.768-1.408 1.088-.64.32-1.515.48-2.624.48Zm.704-3.264c1.13 0 2.048-.31 2.752-.928.725-.64 1.088-1.483 1.088-2.528v-.32h-4.064c-.747 0-1.333.16-1.76.48-.427.32-.64.768-.64 1.344 0 .576.224 1.045.672 1.408.448.363 1.099.544 1.952.544ZM37.29 23V7.128h3.968v1.728h.576c.277-.533.736-.992 1.376-1.376.64-.405 1.482-.608 2.528-.608 1.13 0 2.037.224 2.72.672a4.281 4.281 0 0 1 1.568 1.696h.576a4.677 4.677 0 0 1 1.536-1.696c.66-.448 1.6-.672 2.816-.672.98 0 1.866.213 2.656.64.81.405 1.45 1.035 1.92 1.888.49.832.736 1.888.736 3.168V23h-4.032V12.856c0-.875-.224-1.525-.672-1.952-.448-.448-1.078-.672-1.888-.672-.918 0-1.632.299-2.144.896-.491.576-.736 1.408-.736 2.496V23H46.76V12.856c0-.875-.224-1.525-.672-1.952-.448-.448-1.078-.672-1.888-.672-.918 0-1.632.299-2.144.896-.491.576-.736 1.408-.736 2.496V23h-4.032Zm33.46.448c-2.07 0-3.766-.448-5.088-1.344-1.323-.896-2.123-2.176-2.4-3.84l3.712-.96c.149.747.394 1.333.736 1.76.362.427.8.736 1.312.928.533.17 1.109.256 1.728.256.938 0 1.632-.16 2.08-.48.448-.341.672-.757.672-1.248 0-.49-.214-.864-.64-1.12-.427-.277-1.11-.501-2.048-.672l-.896-.16a16.984 16.984 0 0 1-3.04-.864c-.918-.384-1.654-.907-2.208-1.568-.555-.661-.832-1.515-.832-2.56 0-1.579.576-2.784 1.728-3.616 1.152-.853 2.666-1.28 4.544-1.28 1.77 0 3.242.395 4.416 1.184 1.173.79 1.941 1.824 2.304 3.104l-3.744 1.152c-.171-.81-.523-1.387-1.056-1.728-.512-.341-1.152-.512-1.92-.512s-1.355.139-1.76.416c-.406.256-.608.619-.608 1.088 0 .512.213.896.64 1.152.426.235 1.002.416 1.728.544l.896.16c1.194.213 2.272.501 3.232.864.981.341 1.749.843 2.304 1.504.576.64.864 1.515.864 2.624 0 1.664-.608 2.955-1.824 3.872-1.195.896-2.806 1.344-4.832 1.344ZM80.494 23V.6h4.031v8.48h.576c.171-.341.438-.683.8-1.024.363-.341.843-.619 1.44-.832.62-.235 1.398-.352 2.337-.352 1.237 0 2.314.288 3.231.864a5.617 5.617 0 0 1 2.176 2.336c.513.981.769 2.133.769 3.456V23h-4.032v-9.152c0-1.195-.3-2.09-.897-2.688-.575-.597-1.407-.896-2.495-.896-1.238 0-2.198.416-2.88 1.248-.683.81-1.025 1.952-1.025 3.424V23h-4.032Zm26.506.448c-1.579 0-2.976-.33-4.192-.992a7.369 7.369 0 0 1-2.816-2.848C99.33 18.371 99 16.92 99 15.256v-.384c0-1.664.33-3.104.992-4.32.661-1.237 1.589-2.187 2.784-2.848 1.194-.683 2.581-1.024 4.16-1.024 1.557 0 2.912.352 4.064 1.056 1.152.683 2.048 1.643 2.688 2.88.64 1.216.96 2.635.96 4.256v1.376h-11.552c.042 1.088.448 1.973 1.216 2.656s1.706 1.024 2.816 1.024c1.13 0 1.962-.245 2.496-.736a5.196 5.196 0 0 0 1.216-1.632l3.296 1.728c-.299.555-.736 1.163-1.312 1.824-.555.64-1.302 1.195-2.24 1.664-.939.448-2.134.672-3.584.672Zm-3.872-10.208h7.424c-.086-.917-.459-1.653-1.12-2.208-.64-.555-1.483-.832-2.528-.832-1.088 0-1.952.277-2.592.832-.64.555-1.035 1.29-1.184 2.208Zm21.064 10.208a7.177 7.177 0 0 1-3.552-.928c-1.088-.64-1.963-1.568-2.624-2.784-.661-1.216-.992-2.688-.992-4.416v-.512c0-1.728.331-3.2.992-4.416.661-1.216 1.536-2.133 2.624-2.752a6.882 6.882 0 0 1 3.552-.96c.96 0 1.76.117 2.4.352.661.213 1.195.49 1.6.832.405.341.715.704.928 1.088h.576V.6h4.032V23h-3.968v-1.92h-.576c-.363.597-.928 1.141-1.696 1.632-.747.49-1.845.736-3.296.736Zm1.216-3.52c1.237 0 2.272-.395 3.104-1.184.832-.81 1.248-1.984 1.248-3.52v-.32c0-1.536-.416-2.699-1.248-3.488-.811-.81-1.845-1.216-3.104-1.216-1.237 0-2.272.405-3.104 1.216-.832.79-1.248 1.952-1.248 3.488v.32c0 1.536.416 2.71 1.248 3.52.832.79 1.867 1.184 3.104 1.184Zm9.402 9.472v-3.456h2.112c.597 0 .896-.32.896-.96V7.128h4.032v18.688c0 1.088-.32 1.952-.96 2.592-.64.661-1.493.992-2.56.992h-3.52Zm5.024-24.128c-.725 0-1.344-.235-1.856-.704-.491-.47-.736-1.088-.736-1.856s.245-1.387.736-1.856c.512-.47 1.131-.704 1.856-.704.747 0 1.365.235 1.856.704.491.47.736 1.088.736 1.856s-.245 1.387-.736 1.856c-.491.47-1.109.704-1.856.704Zm13.59 18.176c-1.579 0-2.997-.32-4.256-.96a7.195 7.195 0 0 1-2.976-2.784c-.725-1.216-1.088-2.677-1.088-4.384v-.512c0-1.707.363-3.168 1.088-4.384a7.195 7.195 0 0 1 2.976-2.784c1.259-.64 2.677-.96 4.256-.96 1.579 0 2.997.32 4.256.96a7.195 7.195 0 0 1 2.976 2.784c.725 1.216 1.088 2.677 1.088 4.384v.512c0 1.707-.363 3.168-1.088 4.384a7.195 7.195 0 0 1-2.976 2.784c-1.259.64-2.677.96-4.256.96Zm0-3.584c1.237 0 2.261-.395 3.072-1.184.811-.81 1.216-1.963 1.216-3.456v-.32c0-1.493-.405-2.635-1.216-3.424-.789-.81-1.813-1.216-3.072-1.216-1.237 0-2.261.405-3.072 1.216-.811.79-1.216 1.93-1.216 3.424v.32c0 1.493.405 2.645 1.216 3.456.811.79 1.835 1.184 3.072 1.184ZM165.021 23V7.128h3.968v2.08h.576c.256-.555.736-1.077 1.44-1.568.704-.512 1.771-.768 3.2-.768 1.238 0 2.315.288 3.232.864a5.614 5.614 0 0 1 2.176 2.336c.512.981.768 2.133.768 3.456V23h-4.032v-9.152c0-1.195-.298-2.09-.896-2.688-.576-.597-1.408-.896-2.496-.896-1.237 0-2.197.416-2.88 1.248-.682.81-1.024 1.952-1.024 3.424V23h-4.032Z"/></svg>